{"title":"Ice Age Continental Drift 2012 HDCAM x264 AAC-UNiQUE","uid":7421977,"size":752133389,"categoryP":"video","categoryS":"movies","magnet":"?xt=urn:btih:97cd8b9f2bb8cc17ffb6520c4c6c717f1f9ab1ac&amp;dn=Ice+Age+Continental+Drift+2012+HDCAM+x264+AAC-UNiQUE&amp;tr=udp%3A%2F%2Ftracker.openbittorrent.com%3A80&amp;tr=udp%3A%2F%2Fopen.demonii.com%3A1337&amp;tr=udp%3A%2F%2Ftracker.coppersurfer.tk%3A6969&amp;tr=udp%3A%2F%2Fexodus.desync.com%3A6969","seeders":2,"leechers":0,"uploader":"hiest","files":-1,"time":1341689772,"description":"##     ## ##    ## ####  #######  ##     ## ######## \n##     ## ###   ##  ##  ##     ## ##     ## ##       \n##     ## ####  ##  ##  ##     ## ##     ## ##       \n##     ## ## ## ##  ##  ##     ## ##     ## ######   \n##     ## ##  ####  ##  ##  ## ## ##     ## ##       \n##     ## ##   ###  ##  ##    ##  ##     ## ##       \n #######  ##    ## ####  ##### ##  #######  ######## \n\n\nGeneral\nComplete name : Ice Age Continental Drift 2012 HDCAM x264 AAC-UNiQUE.mp4\nFormat : MPEG-4\nFormat profile : Base Media\nCodec ID : isom\nFile size : 700 MiB\nDuration : 1h 19mn\nOverall bit rate mode : Variable\nOverall bit rate : 1 239 Kbps\nEncoded date : UTC 2012-07-07 15:43:45\n\nVideo\nID : 1\nFormat : AVC\nFormat/Info : Advanced Video Codec\nFormat profile : &lt;a class=&quot;__cf_email__&quot; href=&quot;/cdn-cgi/l/email-protection&quot; data-cfemail=&quot;fdb5949a95bdb1c9d3cc&quot;&gt;[email&amp;#160;protected]&lt;/a&gt;&lt;script cf-hash='f9e31' type=&quot;text/javascript&quot;&gt;\n/* &lt;![CDATA[ */!function(){try{var t=&quot;currentScript&quot;in document?document.currentScript:function(){for(var t=document.getElementsByTagName(&quot;script&quot;),e=t.length;e--;)if(t[e].getAttribute(&quot;cf-hash&quot;))return t[e]}();if(t&amp;&amp;t.previousSibling){var e,r,n,i,c=t.previousSibling,a=c.getAttribute(&quot;data-cfemail&quot;);if(a){for(e=&quot;&quot;,r=parseInt(a.substr(0,2),16),n=2;a.length-n;n+=2)i=parseInt(a.substr(n,2),16)^r,e+=String.fromCharCode(i);e=document.createTextNode(e),c.parentNode.replaceChild(e,c)}}}catch(u){}}();/* ]]&gt; */&lt;/script&gt;\nFormat settings, CABAC : Yes\nFormat settings, ReFrames : 3 frames\nCodec ID : avc1\nCodec ID/Info : Advanced Video Coding\nDuration : 1h 19mn\nBit rate mode : Variable\nBit rate : 1 141 Kbps\nMaximum bit rate : 40.0 Mbps\nWidth : 720 pixels\nHeight : 306 pixels\nDisplay aspect ratio : 2.35:1\nFrame rate mode : Constant\nFrame rate : 23.976 fps\nColor space : YUV\nChroma subsampling : 4:2:0\nBit depth : 8 bits\nScan type : Progressive\nBits/(Pixel*Frame) : 0.216\nStream size : 645 MiB (92%)\nWriting library : x264 core 125 r2200 999b753\n\nAudio\nID : 2\nFormat : AAC\nFormat/Info : Advanced Audio Codec\nFormat profile : LC\nCodec ID : 40\nDuration : 1h 18mn\nBit rate mode : Variable\nBit rate : 96.0 Kbps\nMaximum bit rate : 102 Kbps\nChannel(s) : 2 channels\nChannel positions : Front: L R\nSampling rate : 48.0 KHz\nCompression mode : Lossy\nStream size : 53.3 MiB (8%)\nLanguage : English\nEncoded date : UTC 2012-07-07 15:44:05\n\nSource : HDCAM 26K - Thanks!\n\nStoryline:\n\nManny, Diego, and Sid embark upon another adventure after their continent is set adrift. Using an iceberg as a ship, they encounter sea creatures and battle pirates as they explore a new world.\n &lt;a href=&quot;\nhttp://www.imdb.com/title/tt1667889&quot; rel=&quot;nofollow&quot; target=&quot;_NEW&quot;&gt;\nhttp://www.imdb.com/title/tt1667889&lt;/a&gt;\n\n\nScreens:\n\n\n\n\n\n\n\n\n##     ## ##    ## ####  #######  ##     ## ######## \n##     ## ###   ##  ##  ##     ## ##     ## ##       \n##     ## ####  ##  ##  ##     ## ##     ## ##       \n##     ## ## ## ##  ##  ##     ## ##     ## ######   \n##     ## ##  ####  ##  ##  ## ## ##     ## ##       \n##     ## ##   ###  ##  ##    ##  ##     ## ##       \n #######  ##    ## ####  ##### ##  #######  ######## ","torrent":{"xt":"urn:btih:97cd8b9f2bb8cc17ffb6520c4c6c717f1f9ab1ac","amp;dn":"Ice+Age+Continental+Drift+2012+HDCAM+x264+AAC-UNiQUE","amp;tr":["udp%3A%2F%2Ftracker.openbittorrent.com%3A80","udp%3A%2F%2Fopen.demonii.com%3A1337","udp%3A%2F%2Ftracker.coppersurfer.tk%3A6969","udp%3A%2F%2Fexodus.desync.com%3A6969"],"infoHash":"97cd8b9f2bb8cc17ffb6520c4c6c717f1f9ab1ac","infoHashBuffer":{"type":"Buffer","data":[151,205,139,159,43,184,204,23,255,182,82,12,76,108,113,127,31,154,177,172]},"announce":[],"urlList":[]}}